<svg xmlns="http://www.w3.org/2000/svg" width="20" height="20" viewBox="0 0 20 20"><path d="M19,12.011313 L16,12.011313 C15.9958316,11.3948013 15.8966675,10.7826149 15.706,10.196313 L18.426,8.916313 C18.9258177,8.6810397 19.1402733,8.0851307 18.905,7.585313 C18.6697267,7.0854953 18.0738177,6.8710397 17.574,7.106313 L14.8,8.411313 C14.6344068,8.1874296 14.454709,7.9743307 14.262,7.773313 C14.2269759,7.7371077 14.1891959,7.7036741 14.149,7.673313 L13.749,7.373313 C14.1759583,6.2592752 14.0602712,5.01000317 13.436,3.993313 L14.71,2.719313 C14.9699566,2.46823853 15.0742126,2.09643511 14.9826972,1.74680568 C14.8911817,1.39717624 14.6181368,1.12413128 14.2685073,1.03261584 C13.9188779,0.941100395 13.5470745,1.04535642 13.296,1.305313 L12.019,2.578313 C10.7791657,1.82227313 9.2208343,1.82227313 7.981,2.578313 L6.707,1.304313 C6.3146211,0.925340785 5.6909152,0.930760625 5.3051814,1.31649442 C4.9194476,1.70222822 4.9140278,2.32593411 5.293,2.718313 L6.567,3.992313 C5.9484647,4.99716002 5.8288781,6.2314119 6.243,7.336313 C5.8531983,7.6496007 5.5044485,8.0107819 5.205,8.411313 L2.426,7.111313 C1.9261823,6.8760397 1.3302733,7.0904953 1.095,7.590313 C0.8597267,8.0901307 1.0741823,8.6860397 1.574,8.921313 L4.293,10.200313 C4.1035692,10.78551 4.0047601,11.3962383 4,12.011313 L1,12.011313 C0.4477153,12.011313 0,12.4590283 0,13.011313 C0,13.5635977 0.4477153,14.011313 1,14.011313 L4,14.011313 C4.0041684,14.6278247 4.1033325,15.2400111 4.294,15.826313 L1.574,17.106313 C1.0741823,17.3415863 0.8597267,17.9374953 1.095,18.437313 C1.3302733,18.9371307 1.9261823,19.1515863 2.426,18.916313 L5.208,17.611313 C6.3363041,19.1241523 8.1127393,20.0153488 10,20.0153488 C11.8872607,20.0153488 13.6636959,19.1241523 14.792,17.611313 L17.574,18.920313 C18.0738177,19.1555863 18.6697267,18.9411307 18.905,18.441313 C19.1402733,17.9414953 18.9258177,17.3455863 18.426,17.110313 L15.707,15.831313 C15.8973388,15.2432416 15.9961592,14.6294085 16,14.011313 L19,14.011313 C19.5522847,14.011313 20,13.5635977 20,13.011313 C20,12.4590283 19.5522847,12.011313 19,12.011313 Z M11.412,4.596313 C12.1924093,5.37759101 12.1919399,6.6435165 11.4109513,7.4242154 C10.6299628,8.2049144 9.3640372,8.2049144 8.5830487,7.4242154 C7.8020601,6.6435165 7.8015907,5.37759101 8.582,4.596313 C9.3625395,3.81821122 10.6254605,3.81821122 11.406,4.596313 L11.412,4.596313 Z M10.999999,17.879313 L10.999999,13.011313 C10.999999,12.4590283 10.5522847,12.011313 9.99999903,12.011313 C9.4477153,12.011313 8.99999903,12.4590283 8.99999903,13.011313 L8.99999903,17.879313 C7.2336684,17.4269035 5.9987341,15.8346616 5.99999903,14.011313 L5.99999903,12.011313 C6.0009408,11.3650275 6.1573408,10.7284522 6.456,10.155313 C6.6876598,9.7178313 6.9989989,9.3274704 7.374,9.004313 C8.8607169,10.3413111 11.1146457,10.3477693 12.609,9.019313 L12.872,9.219313 C13.1358169,9.5001108 13.3614306,9.8144905 13.543,10.154313 C13.84231,10.727609 13.9990678,11.3645875 13.999999,12.011313 L13.999999,14.011313 C14.0030445,15.8352693 12.7673628,17.428475 10.999999,17.879313 Z"/></svg>