<svg xmlns="http://www.w3.org/2000/svg" width="30" height="30" viewBox="0 0 30 30"><g fill="none" fill-rule="evenodd"><g fill="#273122" transform="translate(1)"><rect width="4" height="4" x="7"/><rect width="4" height="4" x="8" y="6"/><rect width="4" height="4" x="7" y="12"/><rect width="4" height="4" x="5" y="14"/><rect width="4" height="4" x="5" y="17"/><rect width="4" height="4" x="5" y="20"/><rect width="4" height="4" x="3" y="24"/><rect width="4" height="4" x="3" y="10"/><rect width="4" height="4" y="26"/><rect width="4" height="4" y="8"/><rect width="4" height="4" y="17"/><rect width="4" height="4" x="3" y="17"/><rect width="4" height="4" x="7" y="23"/><rect width="4" height="4" x="9" y="24"/></g><g fill="#273122" transform="matrix(-1 0 0 1 29 0)"><rect width="4" height="4" x="7"/><rect width="4" height="4" x="8" y="6"/><rect width="4" height="4" x="7" y="12"/><rect width="4" height="4" x="5" y="14"/><rect width="4" height="4" x="5" y="17"/><rect width="4" height="4" x="5" y="20"/><rect width="4" height="4" x="3" y="24"/><rect width="4" height="4" x="3" y="10"/><rect width="4" height="4" y="26"/><rect width="4" height="4" y="8"/><rect width="4" height="4" y="17"/><rect width="4" height="4" x="3" y="17"/><rect width="4" height="4" x="7" y="23"/><rect width="4" height="4" x="9" y="24"/></g><rect width="4" height="4" x="10" y="2" fill="#273122"/><rect width="4" height="4" x="16" y="2" fill="#273122"/><rect width="4" height="4" x="16" y="10" fill="#273122"/><rect width="4" height="4" x="10" y="10" fill="#273122"/><rect width="4" height="4" x="13" y="10" fill="#273122"/><rect width="4" height="4" x="13" y="1" fill="#273122"/><rect width="4" height="4" x="13" y="26" fill="#273122"/></g></svg>