<svg xmlns="http://www.w3.org/2000/svg" width="20" height="20" viewBox="0 0 20 20"><g fill="none" fill-rule="evenodd"><path stroke="#000" stroke-width="2" d="M12.1694187,3.04473698 L14.8670646,4.3438548 C16.2379997,5.00406235 17.2336925,6.25262158 17.5722855,7.73609447 L18.238549,10.6551857 C18.577142,12.1386586 18.2217834,13.6955865 17.2730669,14.8852394 L15.406238,17.2261688 C14.4575214,18.4158217 13.0187037,19.1087198 11.4970806,19.1087198 L8.50291944,19.1087198 C6.98129628,19.1087198 5.54247855,18.4158217 4.59376203,17.2261688 L2.72693311,14.8852394 C1.77821658,13.6955865 1.42285795,12.1386586 1.76145096,10.6551857 L2.42771449,7.73609447 C2.7663075,6.25262158 3.76200026,5.00406235 5.13293535,4.3438548 L7.8305813,3.04473698 C9.2015164,2.38452943 10.7984836,2.38452943 12.1694187,3.04473698 Z"/><circle cx="7.5" cy="14.5" r="1.5" fill="#000"/><circle cx="5" cy="11" r="1" fill="#000"/><circle cx="13" cy="15" r="1" fill="#000"/><circle cx="13" cy="8" r="1" fill="#000"/></g></svg>